<?xml version="1.0" standalone="no"?>
<!DOCTYPE svg PUBLIC "-//W3C//DTD SVG 20010904//EN"
 "http://www.w3.org/TR/2001/REC-SVG-20010904/DTD/svg10.dtd">
<svg version="1.0" xmlns="http://www.w3.org/2000/svg"
 width="6196.000000pt" height="8680.000000pt" viewBox="0 0 6196.000000 8680.000000"
 preserveAspectRatio="xMidYMid meet">

<g transform="translate(0.000000,8680.000000) scale(0.100000,-0.100000)"
fill="#000000" stroke="none">
<path d="M3910 86793 c-187 -13 -329 -29 -475 -53 -1031 -172 -1955 -731
-2592 -1567 -500 -656 -783 -1427 -833 -2268 -14 -242 -14 -78382 0 -78635 37
-646 189 -1219 477 -1790 351 -699 865 -1280 1518 -1715 611 -407 1267 -644
2027 -732 146 -17 1336 -18 26783 -18 25734 0 26636 1 26795 18 615 68 1113
211 1645 472 684 335 1271 819 1725 1420 554 735 868 1552 962 2500 11 106 13
7347 13 39165 0 37664 -1 39041 -18 39200 -98 890 -417 1666 -966 2352 -123
155 -399 440 -556 576 -689 594 -1499 944 -2455 1059 -138 17 -1502 18 -27075
19 -14812 0 -26950 -1 -26975 -3z m54000 -596 c80 -9 208 -29 285 -42 1575
-285 2814 -1512 3114 -3085 32 -170 50 -329 61 -548 17 -314 8 -77931 -8
-78067 -24 -199 -44 -333 -73 -475 -347 -1698 -1718 -3029 -3424 -3324 -82
-14 -220 -34 -305 -43 -148 -17 -1349 -18 -26740 -18 -25383 0 -26592 1
-26738 18 -658 76 -1225 283 -1762 642 -438 294 -794 651 -1084 1090 -347 524
-548 1077 -628 1725 -11 86 -13 7338 -13 39525 l0 39420 23 155 c161 1092 781
2014 1726 2569 466 274 1017 439 1568 470 73 5 12220 8 26993 7 25500 -1
26867 -2 27005 -19z"/>
<path d="M40555 72180 c-1026 -76 -1774 -394 -2260 -962 -276 -322 -457 -711
-539 -1158 -16 -83 -936 -6529 -936 -6552 0 -7 -29 36 -65 96 -278 463 -682
878 -1147 1179 -552 357 -1177 574 -1858 643 l-155 16 -1345 -255 -1345 -254
-95 7 c-52 5 -225 11 -385 15 -1242 31 -2188 -255 -2804 -850 -391 -377 -648
-895 -730 -1471 -11 -76 -46 -521 -78 -989 -32 -467 -59 -843 -60 -835 -3 15
-316 6843 -333 7265 -10 246 -23 347 -64 496 -130 476 -488 859 -993 1060
-571 227 -1282 275 -2709 184 -183 -12 -484 -15 -1420 -15 -1271 0 -1266 0
-1797 -55 -641 -65 -1089 -152 -1501 -289 -1010 -338 -1585 -973 -1707 -1886
-32 -242 -35 -197 311 -4268 177 -2091 321 -3805 318 -3808 -3 -3 -50 6 -104
20 -278 70 -577 112 -1044 147 -81 6 -657 15 -1300 20 -635 4 -1452 11 -1815
15 -674 7 -948 0 -1285 -31 -988 -93 -1669 -359 -2145 -840 -352 -355 -552
-782 -642 -1366 -16 -107 -18 -382 -20 -4491 l-3 -4378 -708 0 c-762 0 -834
-4 -1088 -55 -1004 -203 -1832 -967 -2119 -1955 -80 -278 -109 -485 -109 -785
0 -235 14 -375 59 -579 36 -168 10455 -36624 10525 -36829 207 -604 515 -1148
941 -1658 127 -152 423 -451 579 -583 768 -656 1708 -1078 2700 -1215 268 -36
409 -45 720 -45 315 1 478 13 760 55 383 58 811 175 1175 323 72 30 1834 828
3915 1774 2082 946 3839 1740 3905 1765 355 133 718 207 1110 226 464 22 927
-42 1355 -187 63 -22 2230 -874 4815 -1895 2585 -1020 4777 -1881 4870 -1911
399 -132 854 -222 1294 -256 173 -13 559 -13 732 0 585 45 1104 166 1644 382
193 77 532 245 705 347 l134 81 317 0 316 0 13 243 13 242 76 69 c761 695
1294 1556 1565 2526 69 248 8694 36484 8721 36640 44 252 54 460 34 697 -78
935 -610 1765 -1427 2227 -216 122 -514 237 -752 289 -243 54 -303 59 -702 64
l-377 5 4 26 c3 15 197 2679 432 5920 426 5881 427 5893 415 6025 -21 230 -72
412 -174 627 -248 524 -772 978 -1475 1279 -534 228 -1134 367 -1768 411 -342
23 -2694 120 -2911 120 -566 0 -1131 -82 -1623 -234 -63 -20 -116 -34 -116
-33 -1 1 191 1384 427 3072 l429 3070 6 221 c6 242 -3 354 -43 546 -83 398
-265 735 -559 1037 -559 576 -1437 911 -2860 1091 -132 17 -712 104 -1290 195
-1097 171 -1126 175 -1425 201 -216 18 -942 27 -1125 14z m670 -1660 c325 -13
539 -33 810 -75 121 -19 607 -95 1080 -169 473 -74 957 -146 1075 -161 1047
-129 1724 -366 1937 -679 78 -116 85 -253 30 -631 -20 -137 -73 -511 -117
-830 -115 -825 -127 -911 -250 -1795 -61 -437 -160 -1148 -220 -1580 -60 -432
-148 -1059 -194 -1395 -47 -335 -101 -725 -121 -865 -19 -140 -49 -347 -65
-460 -26 -177 -169 -1204 -300 -2155 -23 -159 -47 -335 -55 -390 -17 -116
-104 -744 -170 -1220 -25 -181 -63 -456 -85 -610 -50 -353 -139 -999 -145
-1045 -2 -19 -16 -114 -29 -210 -24 -162 -87 -618 -172 -1230 -19 -140 -44
-316 -54 -390 -11 -74 -47 -331 -80 -570 -33 -239 -71 -514 -85 -610 -14 -96
-74 -533 -135 -970 -98 -710 -182 -1310 -255 -1830 -47 -334 -135 -976 -151
-1090 -8 -63 -24 -177 -35 -253 -10 -76 -19 -143 -19 -149 0 -6 -135 -8 -402
-4 -222 3 -1004 8 -1738 11 -734 3 -1699 7 -2145 10 -2147 13 -2670 17 -2671
18 0 1 52 373 117 827 65 454 335 2344 599 4200 2270 15943 2216 15568 2249
15669 65 205 198 347 415 446 229 105 542 167 922 184 93 4 178 9 189 9 11 1
133 -3 270 -8z m-17019 -2340 c186 -15 346 -39 444 -67 47 -13 88 -27 92 -31
6 -6 140 -2839 208 -4407 32 -736 50 -1141 55 -1225 2 -52 7 -151 10 -220 3
-69 8 -172 11 -230 2 -58 13 -301 24 -540 23 -515 29 -635 35 -755 3 -49 7
-148 10 -220 8 -176 63 -1403 70 -1540 3 -60 14 -310 25 -555 11 -245 22 -485
25 -535 3 -49 7 -144 10 -210 3 -66 8 -169 10 -230 3 -60 10 -211 15 -335 6
-124 12 -265 15 -315 3 -49 7 -146 10 -215 7 -165 46 -1023 95 -2085 22 -473
80 -1740 129 -2815 49 -1075 92 -1993 95 -2039 l5 -83 -202 6 c-111 4 -272 9
-357 11 -85 3 -236 7 -335 10 -99 3 -250 8 -335 10 -85 3 -461 14 -835 25
-374 11 -763 22 -865 25 -102 3 -248 7 -325 10 -77 3 -228 7 -335 10 -107 3
-334 10 -505 15 -170 5 -404 12 -520 15 -115 3 -266 7 -335 10 -69 2 -222 7
-340 10 -118 3 -267 7 -330 10 -63 2 -226 7 -362 11 l-247 7 -6 41 c-2 22 -14
149 -25 281 -41 495 -121 1436 -135 1600 -44 494 -196 2292 -345 4050 -60 721
-121 1438 -135 1595 -14 157 -72 843 -130 1525 -58 682 -226 2673 -375 4425
-149 1752 -287 3384 -307 3627 -41 489 -40 547 11 658 118 259 635 450 1501
554 487 59 544 61 1820 61 1072 0 1210 2 1505 20 179 11 404 24 500 29 258 12
808 13 956 1z m9549 -4435 c873 -143 1575 -719 1754 -1440 56 -227 55 -270
-33 -1505 -36 -509 -176 -2500 -311 -4425 -432 -6164 -475 -6768 -479 -6772
-4 -4 -1775 -27 -4836 -62 -960 -11 -1848 -22 -1975 -23 -149 -2 -230 1 -229
7 1 6 5 60 8 120 4 61 9 133 11 160 3 28 16 217 30 420 31 455 35 514 40 590
8 103 34 486 40 580 3 50 8 106 10 125 2 19 7 89 10 155 3 66 8 136 10 155 2
19 6 80 10 135 3 55 8 120 10 145 3 25 9 117 15 205 5 88 12 193 15 233 3 39
7 107 10 150 3 42 8 100 10 127 2 28 9 122 15 210 5 88 12 192 15 230 22 306
30 418 55 785 11 162 22 322 25 355 2 33 14 195 25 360 11 165 22 329 25 365
3 36 14 198 25 360 11 162 22 324 25 360 5 64 39 564 50 730 3 47 8 108 10
135 3 28 7 88 10 135 3 47 16 245 30 440 13 195 27 391 30 435 3 44 14 206 25
360 11 154 22 323 25 375 3 52 8 115 10 140 2 25 7 86 10 135 3 50 8 115 11
145 2 30 15 219 29 420 36 534 41 611 50 725 3 39 34 493 70 1010 35 517 67
972 70 1010 3 39 10 133 15 209 21 288 85 469 217 616 310 345 1081 485 2143
390 l115 -11 365 71 c201 39 635 122 965 185 330 63 762 146 960 184 198 38
362 70 365 70 3 1 46 -6 95 -14z m15555 -2430 c50 -4 571 -27 1615 -70 713
-30 879 -45 1172 -106 521 -108 946 -301 1178 -534 144 -143 136 -53 76 -877
-28 -387 -89 -1229 -136 -1873 -47 -643 -110 -1510 -140 -1925 -51 -709 -151
-2083 -350 -4825 -145 -1991 -157 -2150 -162 -2155 -4 -5 -1177 -30 -2058 -44
-225 -4 -473 -9 -550 -11 -77 -2 -282 -7 -455 -10 -270 -5 -987 -19 -2035 -40
-148 -3 -353 -7 -455 -10 -102 -3 -342 -7 -535 -10 -192 -3 -410 -8 -482 -11
-125 -6 -133 -5 -133 12 0 11 5 73 10 139 17 203 19 234 35 440 8 110 17 225
20 255 5 61 111 1418 150 1930 14 179 27 350 30 380 5 56 31 392 85 1085 16
215 32 417 35 450 3 33 12 150 20 260 14 183 37 474 50 635 3 36 36 470 75
965 38 495 72 927 75 960 3 33 9 121 15 195 6 74 12 160 15 190 2 30 16 204
30 385 14 182 27 355 30 385 5 64 72 929 80 1040 3 41 8 95 10 120 3 25 12
137 20 250 8 113 17 228 20 255 2 28 29 376 60 775 63 822 53 766 156 870 197
196 594 372 1052 464 116 23 388 61 507 70 64 5 789 -3 870 -9z m-35970 -3296
c212 -5 743 -9 1180 -8 795 1 1037 -5 1345 -37 578 -58 904 -183 1047 -401
118 -178 164 -402 174 -848 3 -126 27 -1744 54 -3595 27 -1851 52 -3508 56
-3682 l6 -318 -3516 0 -3516 0 0 4028 c0 2628 4 4051 10 4097 32 225 111 371
252 466 269 183 727 281 1437 309 237 9 871 5 1471 -11z m23850 -14612 c411
-63 751 -193 1080 -412 161 -107 286 -212 432 -363 387 -402 619 -884 700
-1457 20 -138 17 -523 -5 -665 -40 -259 -107 -477 -218 -708 -130 -272 -274
-478 -479 -682 -207 -208 -395 -346 -640 -469 -238 -120 -486 -200 -770 -248
-100 -17 -673 -18 -11820 -21 -8210 -2 -11751 0 -11835 8 -915 81 -1688 743
-1905 1632 -48 197 -60 317 -60 621 0 387 30 607 120 890 143 448 378 823 717
1147 451 431 1036 692 1653 740 52 4 5230 7 11505 6 10865 -1 11415 -2 11525
-19z m7683 -9274 c3 -6 -3198 -11711 -3927 -14361 l-28 -102 -13681 2 -13680
3 -2063 7220 c-1135 3971 -2063 7226 -2064 7233 0 9 3550 12 17719 12 9746 0
17722 -3 17724 -7z"/>
</g>
</svg>
